Love for All and Sharing is the first step to solving all the problems of humanity.

Website I want to share. 
               
   http://www.scenetime.com
 
 
  Credit to EVERYONE for sharing and seeding back
 especially to SCENETIME.COM where i get all my 
 downloads.


 support www.scenetime.com to grow faster.

                             
                                                            
                                                   

.                 ..................................NFO:....................................*******************************************************************************
                  Fingerprints.2006.DVDRip.AC3.X264-BARC0DE
*******************************************************************************

-------------------------------------------------------------------------------
                              General Information
-------------------------------------------------------------------------------
Type.................: Movie
Name.................: Fingerprints
Movie Information....: http://www.imdb.com/title/tt0790662/
Genre................: Horror | Mystery | Thriller

-------------------------------------------------------------------------------
                                    PLOT
-------------------------------------------------------------------------------
Fresh out of rehab, a young woman moves back in with her parents and sister, and 
soon becomes involved in a mystery that has left people in her town paralyzed.

-------------------------------------------------------------------------------
                                    CAST
-------------------------------------------------------------------------------
Leah Pipes	... 	Melanie
Kristin Cavallari	... 	Crystal
Josh Henderson	... 	Penn
Andrew Lawrence	... 	Mitch
Lou Diamond Phillips	... 	Doug
Sally Kirkland	... 	Mary
Geoffrey Lewis	... 	Keeler
Ginger Gilmartin	... 	Bethany
Glen Jensen	... 	Kowalski
Morgan Brown	... 	Reynolds (as Morgan Brown III)
Sydnee Harlan	... 	Julie
Ashley Wyatt	... 	Carolyn
Ben Hall	... 	Mr. Pearl
Dylan Cox	... 	Shawn
Gracie Veneklasen	... 	Little Mary

-------------------------------------------------------------------------------
                                    MEDiA iNFO
-------------------------------------------------------------------------------

General
Complete name                    : Fingerprints.2006.DVDRip.AC3.X264-BARC0DE.mkv
Format                           : Matroska
File size                        : 1.45 GiB
Duration                         : 1h 31mn
Overall bit rate                 : 2 257 Kbps


Video
ID                               : 1
Format                           : AVC
Format/Info                      : Advanced Video Codec
Format profile                   : High@L3.0
Format settings, CABAC           : Yes
Format settings, ReFrames        : 3 frames
Muxing mode                      : Container profile=Unknown@3.0
Codec ID                         : V_MPEG4/ISO/AVC
Duration                         : 1h 31mn
Bit rate                         : 1 831 Kbps
Width                            : 720 pixels
Height                           : 400 pixels
Display aspect ratio             : 16:9
Frame rate                       : 25.000 fps
Color space                      : YUV
Chroma subsampling               : 4:2:0
Bit depth                        : 8 bits
Scan type                        : Progressive
Bits/(Pixel*Frame)               : 0.254
Stream size                      : 1.13 GiB (78%)
Writing library                  : x264 core 79


Audio
ID                               : 2
Format                           : AC-3
Format/Info                      : Audio Coding 3
Mode extension                   : CM (complete main)
Codec ID                         : A_AC3
Duration                         : 1h 31mn
Bit rate mode                    : Constant
Bit rate                         : 448 Kbps
Channel(s)                       : 6 channels
Channel positions                : Front: L C R, Side: L R, LFE
Sampling rate                    : 48.0 KHz
Stream size                      : 294 MiB (20%)
Language                         : English